<svg width="83" height="83" viewBox="0 0 83 83" fill="none" xmlns="http://www.w3.org/2000/svg">
<rect x="1" y="1" width="81" height="81" rx="9" fill="#77A8B2" stroke="#77A8B2" stroke-width="2"/>
<path d="M31.433 42.0952C32.7671 42.3058 33.9782 42.85 35.0665 43.7276C36.19 44.6053 37.0676 45.6936 37.6995 46.9925C38.3666 48.2915 38.7001 49.6782 38.7001 51.1526C38.7001 53.0133 38.2261 54.6984 37.2783 56.208C36.3304 57.6824 34.9437 58.8585 33.1181 59.7362C31.3277 60.5787 29.2038 61 26.7463 61H13.0548V24.2962H26.2197C28.7123 24.2962 30.8362 24.7175 32.5915 25.56C34.3469 26.3675 35.6634 27.4733 36.541 28.8776C37.4187 30.2818 37.8575 31.8616 37.8575 33.617C37.8575 35.7936 37.2607 37.6015 36.0671 39.0409C34.9086 40.4452 33.3639 41.4633 31.433 42.0952ZM17.8468 40.1468H25.9038C28.1506 40.1468 29.8883 39.6202 31.1171 38.567C32.3458 37.5138 32.9602 36.0569 32.9602 34.1962C32.9602 32.3356 32.3458 30.8787 31.1171 29.8255C29.8883 28.7723 28.1155 28.2457 25.7984 28.2457H17.8468V40.1468ZM26.325 57.0505C28.7123 57.0505 30.5729 56.4888 31.907 55.3654C33.241 54.242 33.908 52.6798 33.908 50.6787C33.908 48.6425 33.2059 47.0452 31.8016 45.8867C30.3974 44.693 28.5192 44.0962 26.1671 44.0962H17.8468V57.0505H26.325ZM71.6798 45.4654C71.6798 46.3782 71.6272 47.3436 71.5219 48.3617H48.4569C48.6325 51.2053 49.5979 53.4346 51.3532 55.0495C53.1436 56.6292 55.3027 57.4191 57.8303 57.4191C59.9016 57.4191 61.6218 56.9452 62.991 55.9973C64.3953 55.0143 65.3782 53.7154 65.9399 52.1005H71.1006C70.3282 54.8739 68.7836 57.1383 66.4665 58.8936C64.1495 60.6138 61.2708 61.4739 57.8303 61.4739C55.092 61.4739 52.6346 60.8596 50.458 59.6308C48.3165 58.4021 46.6314 56.6644 45.4027 54.4175C44.1739 52.1356 43.5596 49.5026 43.5596 46.5186C43.5596 43.5345 44.1564 40.9191 45.35 38.6723C46.5436 36.4255 48.2112 34.7053 50.3527 33.5116C52.5293 32.2829 55.0218 31.6686 57.8303 31.6686C60.5686 31.6686 62.991 32.2654 65.0974 33.459C67.2038 34.6526 68.8187 36.3026 69.9421 38.409C71.1006 40.4803 71.6798 42.8324 71.6798 45.4654ZM66.7298 44.4649C66.7298 42.6393 66.3261 41.0771 65.5187 39.7781C64.7112 38.4441 63.6054 37.4436 62.2011 36.7765C60.8319 36.0744 59.3048 35.7233 57.6197 35.7233C55.1974 35.7233 53.1261 36.4957 51.4059 38.0404C49.7208 39.5851 48.7553 41.7266 48.5096 44.4649H66.7298Z" fill="white"/>
<line x1="47" y1="27.5" x2="69" y2="27.5" stroke="white" stroke-width="3"/>
</svg>
